<svg version="1.0" xmlns="http://www.w3.org/2000/svg" width="1365.333" height="1365.333" viewBox="0 0 1024 1024"><path d="M500 13.6c-4.9 1.3-9.7 3.6-21 10.1-1.9 1.1-12.3 7.1-23 13.3-10.7 6.2-28.3 16.3-39 22.5-10.7 6.2-20.9 12.1-22.7 13.1-1.7 1.1-7.6 4.4-13 7.5-5.4 3.1-16.8 9.7-25.3 14.7-8.5 4.9-25.4 14.6-37.5 21.6-12.1 6.9-22.7 13-23.5 13.5-.8.5-10 5.9-20.5 11.9-10.4 6-26.2 15.1-35 20.2-13.9 8.1-25.5 14.8-38.5 22.2-6.9 4-19.5 11.3-21.1 12.3-.9.5-3.6 2.1-6 3.4-2.4 1.3-6.9 3.8-9.9 5.6-5.3 3.2-10.2 6-44.8 26-15.7 9.1-18 11.4-15.5 15.4.9 1.4 11 7.8 24.8 15.6 2.2 1.2 14.4 8.2 27 15.5 12.7 7.3 24.6 14.2 26.5 15.3 1.9 1 6.4 3.6 10 5.8 3.6 2.1 7.6 4 9 4.4 2 .4 6.6-1.8 21.4-10.5 10.3-6 19-11 19.1-11 .2 0 3.2-1.7 6.6-3.8 27.8-16.8 66.3-34.3 100.4-45.6 14.8-5 56.5-15.9 64.7-17.1 4.4-.6 10.3-1.6 11.8-2 2-.6 20.9-3.2 28.5-4 3.3-.3 7.1-.8 8.5-1.1 14.3-2.5 84.4-2.5 100 0 1.4.3 5.4.7 9 1.1 3.6.3 7.4.8 8.5 1 1.1.2 3.8.6 6.1.9 5.7.7 28.7 4.6 29.3 5.1.3.1 2.4.6 4.6.9 15.9 2.5 67.4 17.9 81.9 24.6 2.5 1.1 4.9 2 5.4 2 .4 0 3.2 1.1 6 2.5 2.9 1.4 5.4 2.5 5.7 2.5 1.5 0 32 14.9 43.5 21.2 3 1.7 14.1 8 24.5 14.1 10.5 6 20.6 11.9 22.5 13 9.7 5.6 13.2 6.9 15.4 5.9 1.1-.5 21-11.9 44.1-25.2 23.1-13.4 43.7-25.2 45.9-26.4 8.6-4.7 8.6-9.8-.2-14.7-3.1-1.8-17.9-10.3-32.8-19-15-8.6-29.1-16.8-31.5-18.2-6.7-3.7-48.9-28.2-52.9-30.6-1.9-1.1-4.2-2.4-5-2.8-.8-.4-5.1-2.8-9.5-5.4-7.8-4.5-62.7-36.3-69.3-40.1-1.8-1-9.3-5.3-16.5-9.5-7.3-4.2-14.8-8.5-16.7-9.5-1.9-1.1-3.9-2.4-4.5-2.8-.5-.4-3.5-2.1-6.5-3.7-3-1.7-19.7-11.2-37-21.3-17.3-10-33.3-19.2-35.5-20.4-2.2-1.3-9.6-5.6-16.5-9.6s-14.3-8.3-16.5-9.5c-2.2-1.2-9.6-5.5-16.5-9.6-17.2-10.1-22.4-12.1-32.9-12.5-5.4-.1-10.7.3-14.1 1.2z"/><path d="M498.7 277.6c-.1.1-3.8.5-8.2.8-9.4.8-12.1 1.2-24 3.2-11 1.8-34.7 8.8-44.2 13-1.7.8-3.4 1.4-3.8 1.4-.9 0-21.2 10.1-27.3 13.7-31.4 18.1-61.9 47.2-82.6 79.1-18.6 28.6-33.1 69.5-36.1 101.7-.4 3.8-.9 8.3-1.1 10-.5 3.9-.5 31.9.1 37 1.3 12.4 1.7 15.6 2.7 21.5 12.9 78.7 66.9 147.9 140.8 180.4 8 3.6 24 9.5 27.4 10.2 1 .2 3.3.8 5 1.3 3.5 1.2 19.9 4.8 25.4 5.7 12.3 2 26.7 3 41.2 2.8 19.3-.1 27.2-.9 45.5-4.5 59-11.4 114.3-47.2 148.8-96.4 3.1-4.4 6-8.5 6.5-9 .4-.6 1.1-1.7 1.5-2.5.4-.8 2.1-3.8 3.7-6.5 1.7-2.8 4.9-8.5 7.1-12.8 12.4-24.2 22-56.2 24.4-81.5.4-3.7.9-7.8 1.1-9.2.5-3.1.6-33.4 0-37.5-.2-1.7-.7-5.7-1-9-1.5-13.7-5.1-30.5-9.6-45-2.4-7.5-11.8-31.3-13.1-33.1-.5-.6-2.7-4.6-5-9-3.7-7.1-17.6-28.8-20.3-31.7-.6-.7-2.9-3.5-5.1-6.2-6.5-8.2-28.4-29.6-37.5-36.7-37.7-29-78.6-45.4-125.5-50.4-6.4-.6-36.2-1.3-36.8-.8z"/><path d="M69.2 296.6l-2.2 1.5v227.4c0 163 .3 228.9 1.1 232.7 1.8 8.3 6.7 17.2 12.8 23.1 5 4.9 23 15.8 74 44.9 1.9 1.1 20.8 12 42 24.2 21.2 12.3 40.2 23.3 42.1 24.3 1.9 1.1 7.8 4.5 13 7.5 18.6 10.8 93.5 54.1 96.5 55.8 4.3 2.4 33.7 19.4 56 32.3 10.5 6.1 21.5 12.4 24.5 14 3 1.6 6.2 3.5 7 4.1.8.6 2.4 1.6 3.5 2.2 1.1.6 10 5.7 19.7 11.2 9.8 5.6 18.6 10.2 19.6 10.2s2.7-.9 3.7-2.1c1.8-1.9 1.9-4.8 2-56.2 0-29.8-.3-55.3-.7-56.7-.8-2.3-5.1-5.2-21.8-14.5-2-1.2-6.8-3.9-10.6-6.1-3.8-2.3-13-7.6-20.4-11.9-15.3-9-39.7-25.1-51.4-34-16.8-12.8-18.9-14.5-25.8-20.6-4-3.5-9-8-11.3-9.9-6.4-5.5-32.4-31.8-39.5-39.9-3.6-4.1-7-7.9-7.5-8.5-.9-.9-16.8-20.8-19.3-24.1-41.7-55.2-75.8-128-90.7-193.5-1.6-7-6.6-32.5-7-35.6-.3-2.1-.7-4.8-.9-5.9-.2-1.2-.7-4.8-1.1-8-.4-3.3-.9-6.7-1-7.6-.2-.9-.6-5.2-1-9.5s-.8-9.5-1.1-11.4c-.8-7.1-1.6-37.6-1.8-70.6l-.1-33.8-4-2.7c-2.2-1.4-6-3.7-8.5-5.1-2.5-1.4-15.5-8.9-28.8-16.7-13.4-7.7-24.6-14.1-24.9-14.1-.2 0-2.4-1.4-4.8-3-2.4-1.7-4.5-3-4.8-3-.2 0-5.1-2.7-10.8-6-5.7-3.3-11.1-6-11.9-6-.9 0-2.6.7-3.8 1.6zm866.3 6.5c-7.7 4.5-15.8 9.1-18 10.4-6.1 3.4-48.5 28-52.5 30.4-1.9 1.1-5.2 3-7.2 4.1-2.1 1.1-4.1 2.8-4.6 3.8-.5.9-1 19.5-1 41.2-.1 37.6-.3 44.2-1.8 64-.8 11-1.1 13.5-1.9 19.5-.3 2.7-.8 6.8-1.1 9-.3 2.2-1.3 8.9-2.4 15-3.2 18.7-3.6 20.7-4.4 23.3-.3.9-.8 3.3-1.2 5.2-.8 4.6-.9 5.1-1.7 7.5-.3 1.1-.8 3.1-1.1 4.5-.7 4.4-7.4 27.4-11.2 38.6-20.2 60.2-51.6 116.8-91.9 165.9-18.6 22.6-42.3 46.5-67 67.6-2.2 1.9-4.4 3.7-5 4.1-.5.4-2.6 2-4.5 3.6-20.6 16.8-49.7 35.9-87.6 57.4-20.3 11.4-28.4 16.5-29.1 18.3-.5 1.1-.8 26.6-.8 56.7.1 51.9.2 54.8 2 56.7 1 1.2 2.7 2.1 3.8 2.1 1.1 0 8.3-3.7 16.1-8.1 7.7-4.5 19.7-11.4 26.6-15.4 59.8-34.6 71.1-41.1 75-43.3 2.5-1.4 5.7-3.3 7.2-4.3 1.4-1.1 2.8-1.9 3.1-1.9.3 0 8.6-4.7 18.4-10.3 9.8-5.7 25.5-14.8 34.8-20.2 9.4-5.4 22.4-13 29-16.8 6.6-3.8 14-8.1 16.5-9.5 2.5-1.4 18.9-10.8 36.5-21 17.6-10.1 35.8-20.7 40.5-23.3 4.7-2.7 9.2-5.4 10-5.9.8-.6 2.2-1.3 3-1.7.8-.4 3.2-1.7 5.3-3 2.1-1.3 5.5-3.3 7.5-4.5 15.2-8.5 58.5-33.7 62-36 8.3-5.7 14.7-14.4 18.1-24.8 2.1-6.3 2.1-6.3 2.1-235.1V298.1l-2.2-1.5c-1.2-.9-2.9-1.6-3.8-1.6-.8 0-7.8 3.7-15.5 8.1z"/></svg>