<svg version="1.0" xmlns="http://www.w3.org/2000/svg" width="2732" height="2732" viewBox="0 0 2049 2049"><path d="M1002.4 3.4C990.5 6.2 982.2 9.9 965 20c-6.9 4-14.3 8.3-16.5 9.5C946.3 30.8 930.3 40 913 50c-17.3 10.1-33.5 19.4-36 20.8-2.5 1.4-12.4 7.1-22 12.7-17.3 10-61.2 35.4-68 39.2-1.9 1.1-6 3.5-9 5.3-3 1.8-7.1 4.2-9 5.3-11.4 6.4-44.1 25.4-47.2 27.4-2.1 1.2-4 2.3-4.2 2.3-.3 0-4.6 2.5-9.6 5.5s-9.2 5.5-9.5 5.5c-.2 0-4.9 2.7-10.5 6s-10.6 6-11.1 6-.9.4-.9 1c0 .5-.5 1-1 1-.6 0-10.8 5.7-22.8 12.6-11.9 6.9-26.4 15.3-32.2 18.7-5.8 3.3-13.6 7.9-17.5 10.2-3.8 2.3-7.7 4.4-8.5 4.8-.8.4-3.1 1.7-5 2.8-4.1 2.5-101.3 58.6-105 60.6-1.4.8-4.5 2.6-7 4.1-2.5 1.5-9.5 5.5-15.5 9-6.1 3.5-11.7 6.7-12.5 7.2-2.8 1.7-45.2 26.3-54 31.2-4.8 2.8-47.9 27.6-64.5 37.3-5.5 3.2-12 6.9-14.5 8.3-2.5 1.4-6.2 3.6-8.2 4.9-2.1 1.2-3.9 2.3-4.2 2.3-.2 0-3.5 1.9-7.2 4.1-3.8 2.3-8.7 5.2-10.9 6.4-2.2 1.2-15.2 8.7-29 16.6-13.7 8-34.3 19.9-45.7 26.5-13.4 7.7-21.2 12.8-22.2 14.6-2.7 4.5-1.8 11.7 1.8 15.3.6.6 14.2 8.7 30.1 17.9 16 9.2 29.7 17.2 30.5 17.6 2.1 1.2 19.7 11.3 24 13.8l19.5 11.3c8.8 5.1 17.7 10.2 19.7 11.3 2 1.2 9 5.2 15.5 9 6.5 3.7 14.3 8.2 17.3 9.9 3 1.6 6 3.3 6.5 3.7.6.4 2.6 1.7 4.5 2.8 1.9 1 8.6 4.9 14.8 8.5 6.3 3.7 12.8 6.9 14.6 7.3 3.9.7 5.7-.1 24.3-10.9 7.2-4.2 14.7-8.5 16.5-9.5 1.8-1.1 5.7-3.3 8.6-5.1 2.9-1.7 5.5-3.1 5.8-3.1.3 0 3-1.6 6-3.5s5.7-3.5 6-3.5c.3 0 2.8-1.5 5.7-3.3 2.9-1.8 6.3-3.8 7.7-4.5 1.4-.7 4.1-2.2 6-3.3 38.1-22.8 80.4-44.8 119.5-62.1 5-2.2 10.8-4.8 13-5.8 2.2-.9 11-4.5 19.5-7.9 8.5-3.4 16.4-6.6 17.5-7.1 9.5-4.1 57.5-20.4 79.5-26.8 31.3-9.3 71.8-19.2 97-23.8 1.4-.2 5.9-1.1 10-1.9 10.8-2.1 27.9-4.9 36-6 2.5-.3 5.6-.8 7-1 1.4-.3 4.5-.7 6.9-1 2.3-.3 5.5-.7 7-.9 1.4-.3 5.1-.8 8.1-1.1 3-.4 7.1-.8 9-1.1 3.3-.4 8.7-.9 18.5-1.9 2.2-.2 7.6-.7 12-1 4.4-.4 9.6-.8 11.5-1 1.9-.2 9.8-.7 17.5-1.1 7.7-.3 16.5-.8 19.5-1 6.8-.4 76.6-.3 83.5.1 2.8.1 11.1.6 18.5 1 7.4.3 14.7.8 16.2 1 1.5.2 7.6.6 13.5 1s11 .9 11.3 1c.3.2 4.1.6 8.5 1s8.7.9 9.5 1c.8.2 4.4.6 8 1 3.6.3 7.6.8 9 1 1.4.2 4.5.6 7 1 2.5.3 5.6.8 7 1 1.4.2 4.5.7 7 1 2.5.3 6.8 1 9.5 1.5 2.8.5 7 1.2 9.5 1.5 2.5.3 5.3.8 6.3 1.1 1 .3 3 .7 4.5.9 8.4 1.2 37.4 7.1 53.7 11 3.9.9 7.7 1.8 8.5 2 2.8.6 33.5 8.6 36.5 9.6 1.7.5 9.3 2.7 17 5 43 12.5 99.6 33.8 137.4 51.5 5.1 2.4 9.5 4.4 9.8 4.4 1.2 0 48.9 24.4 61.3 31.3 2.5 1.4 5.7 3.2 7.2 4 1.4.8 16.2 9.3 32.8 18.8 16.5 9.6 31.8 18.3 33.8 19.5 2 1.1 5.3 3 7.2 4.1 7.8 4.5 29.8 17.2 34.1 19.5 7.3 4.1 9.2 3.5 32-9.7 11.2-6.4 22.4-12.9 24.9-14.3 2.5-1.3 5.7-3.3 7.2-4.3 1.4-1.1 2.8-1.9 3.1-1.9.3 0 4.5-2.3 9.4-5.1 4.8-2.8 16-9.3 24.8-14.4 54.6-31.6 67.5-39 71.5-41.3 2.5-1.3 5-2.8 5.5-3.2.6-.5 3.3-2.1 6.1-3.7 19.3-10.7 22.4-12.9 24-16.2 1.9-4 1.4-10.4-1.2-13.2-1.4-1.6-10.9-7.5-19.9-12.4-1.1-.6-13.7-7.9-28-16.2-14.3-8.3-27.7-16-29.7-17.2-6.4-3.6-9.6-5.4-32.3-18.6-12.1-7-24-13.9-26.5-15.3-2.5-1.4-10.8-6.2-18.5-10.7-7.7-4.5-16-9.3-18.5-10.7-2.5-1.4-11.7-6.7-20.5-11.8-8.8-5.1-17.3-10.1-19-11-4.2-2.4-44-25.4-67.5-39-10.7-6.2-21.1-12.2-23-13.3-1.9-1-17.7-10.1-35-20.2-35.2-20.4-67.7-39.1-82-47.3-5.2-2.9-9.9-5.7-10.5-6.1-.5-.5-3.5-2.2-6.5-3.8-3-1.7-22.6-12.9-43.5-25-56-32.4-115.9-67-119.7-69.1-1.8-1.1-13-7.5-24.8-14.4-47.5-27.5-73.7-42.7-78.5-45.3-2.7-1.6-9.4-5.5-14.8-8.7-5.5-3.2-10.1-5.8-10.3-5.8-.2 0-2.1-1.1-4.2-2.3-3.5-2.3-46.8-27.3-55.8-32.3-19-10.6-45.2-14.1-67-9z"/><path d="M1006.8 544.5c-.2.1-6.4.5-13.8.9-7.4.3-14.6.8-16 1-1.4.3-5.4.7-9 1.1-3.6.3-8.1.8-10 1.1-3.1.4-4.9.7-12.5 1.9-1.1.2-3.6.6-5.5.9-1.9.3-4.6.8-6 1.1-1.4.3-4.1.8-6 1.1-5.8.9-31.5 7.2-40.8 9.9-4.8 1.5-9.4 2.8-10.2 3-2.6.6-24.2 8.2-31.2 10.9-34.5 13.2-74.1 34.2-102.6 54.4-5.2 3.7-10.4 7.4-11.5 8.2-4.7 3.1-26.2 20.5-34 27.3-8.4 7.3-31.4 30-40.1 39.5-33.4 36.6-65.7 86.2-85 130.7-2.6 6-5.6 12.9-6.7 15.2-1 2.4-1.9 4.9-1.9 5.6 0 .7-.4 1.7-.9 2.3-.8.9-8.9 24.1-13 37.4-2.1 7-8.6 32.6-9.5 37.5-1.7 9.7-3.7 20.2-4.1 21.5-.2.8-.7 4.2-1 7.5-.4 3.3-.8 6.7-1 7.5-.2.8-.7 4.2-1.1 7.5-.3 3.3-.8 7.3-1 9-2.6 19.7-2.6 77.7 0 99.5.3 1.9.7 5.9 1 8.9.6 5.3 2 15.2 3.2 22.6.5 3.5 5.9 30.5 6.9 34.5.4 1.9 4.2 15.8 6 22.5 4.8 17.1 13.7 41.9 21 58 1.2 2.7 3.5 7.9 5.1 11.5 17.2 39.1 48.7 86.8 80.3 122 36.7 40.8 78.9 74.6 127.1 101.9 14.4 8.2 45 22.5 64.5 30.1 7.8 3.1 25.2 9.1 30.5 10.6.8.2 7 1.9 13.7 3.8 10.7 3 28.6 7.3 37.8 9.1 8.8 1.6 19.6 3.4 24.4 4 3 .4 6.1.8 7 1 .9.1 4.8.6 8.8 1 4 .4 8.5.8 10 1 7.4.9 29.4 1.8 43.8 1.8 23.3 0 38.2-.9 59-3.4 13.9-1.7 15.8-2 25-3.6 5-.8 9.7-1.7 10.5-1.8 18.2-2.7 61.7-15.2 85.5-24.7 20.9-8.3 53.6-23.9 65.5-31.3 1.9-1.2 4.2-2.5 5-2.8.8-.4 5.3-3.2 10-6.2s9.8-6.3 11.4-7.3c8.4-5.1 39.8-28.5 45.2-33.7.6-.5 3.1-2.6 5.5-4.6 13.3-11.1 37.9-35.7 51.4-51.4 3.7-4.4 8-9.4 9.4-11 7.7-8.9 26.2-34.8 36.5-51.3 13.9-22.3 29.2-52.2 38-74.7 2.6-6.6 5.2-12.9 5.6-14 8.5-19.3 22.7-75 25.5-100.1.4-3.2.9-6.8 1.1-7.9.2-1.1.7-4.7 1-8 .3-3.3.8-7.1 1-8.5 1.7-10.4 2.4-63.1 1-82-.8-11.6-3.3-34.5-4.6-42-1.6-9.3-2.5-14.4-3.5-20-4.4-22.6-17.7-68.5-24-82.5-.7-1.6-3.7-8.6-6.5-15.5-5.8-13.8-16.2-34.9-25.3-51-5.1-8.9-20.4-33.2-23-36.5-.4-.6-4.4-6-8.9-12-14.3-19.4-29.3-36.9-46.8-54.4-10.8-10.8-15.4-15.3-27.5-25.9-36.6-32.5-88.5-64.2-138-84.2-23.6-9.5-64.7-22.1-80.4-24.6-2-.3-3.8-.7-4.1-.9-.3-.2-2.6-.6-5-1-2.5-.3-6.1-1-8-1.5-1.9-.5-5.5-1.1-8-1.4-2.5-.3-5.4-.8-6.5-1-3.9-.7-11.1-1.6-17-2.1-3.3-.3-7.6-.7-9.5-1-10.6-1.4-62-3-63.2-2z"/><path d="M122.2 581.1c-3.9.8-6.6 3.1-8.1 6.7-.8 2-1.1 130.9-.9 470.2l.3 467.5 2.3 8c5.8 20.2 18.8 39.9 33.7 51 2.2 1.6 4.2 3.3 4.5 3.6.5.5 22.6 13.5 32 18.7 2.5 1.4 7.4 4.2 10.9 6.4 3.4 2.1 6.4 3.8 6.6 3.8.3 0 14.2 7.9 17.5 10 .8.5 6.2 3.7 12 7s11.2 6.5 12 7c3.3 2 51.8 29.9 56.5 32.5 2.8 1.5 5.5 3.1 6 3.5.6.4 3 1.9 5.5 3.2 2.5 1.4 13.2 7.6 23.8 13.7 10.6 6.1 20.7 12 22.5 13 1.7 1 8.3 4.8 14.6 8.5 6.2 3.6 11.5 6.6 11.8 6.6.2 0 1.6.8 3.1 1.9 1.5 1 15.1 9 30.2 17.7 23.9 13.7 59.3 34 68.5 39.4 1.7 1 17.4 10.1 35 20.2 17.6 10.2 39.4 22.8 48.5 28 9.1 5.3 18.2 10.5 20.3 11.7 6.6 3.7 10 5.7 21.5 12.5 6.2 3.6 13.2 7.7 15.5 9 2.3 1.3 8.3 4.7 13.2 7.6 5 2.9 11 6.4 13.5 7.8 2.5 1.4 14.4 8.2 26.5 15.2s23.8 13.8 26 15.1c2.2 1.2 6.3 3.5 9 5.1 2.8 1.6 5.7 3.3 6.5 3.8 1.4.9 38.1 22.1 47.5 27.5 2.2 1.2 12.8 7.3 23.5 13.5s21 12.1 22.8 13.1c5.5 3.2 9.2 5.4 24.5 14.3 8.2 4.7 16.7 9.7 19 11 4 2.2 33 19 64.7 37.3 8 4.6 15.2 8.8 16 9.3 7.6 4.7 11.6 6.2 15.2 5.7 4.9-.7 8.6-3.1 9.9-6.5 1.4-3.6 1.5-226.6.1-230.2-1.3-3.4-1.4-3.5-18.7-13.4-8.2-4.7-15.7-9-16.5-9.5-2.4-1.5-41.8-24.3-47.4-27.4-5-2.8-20.4-11.8-37.6-22-14.4-8.5-54.6-34.2-56-35.7-.3-.3-6.6-4.8-14-10s-13.9-9.8-14.5-10.2c-.5-.5-5.3-4-10.5-8-9.3-7-27-20.8-28-21.8-.3-.3-4.1-3.4-8.5-7-35.9-29-86.9-78.3-120.6-116.5-2.4-2.8-4.6-5.2-4.9-5.5-.3-.3-3-3.4-6-7s-5.7-6.7-6-7c-.3-.3-2.4-2.8-4.5-5.5-2.2-2.8-4.2-5.2-4.5-5.5-2.7-2.4-27-34.1-40-52-22.8-31.4-52-77.8-69.3-110-2.2-4.1-4.3-8-4.8-8.5-2-2.7-26.7-53.3-34.2-70.1-8.9-20-24.4-58.4-29.7-73.9-1.7-5-3.5-9.9-4-11-1.9-4.4-15.3-47.2-18.6-59.5-.2-.8-1.9-7.4-3.9-14.5-1.9-7.2-3.7-13.9-3.9-15-.2-1.1-1.4-5.8-2.6-10.5-1.2-4.7-2.4-9.6-2.6-11-.3-1.4-1.1-5.1-1.9-8.3-.8-3.2-1.7-7.1-2-8.6-.3-1.5-1.8-9.9-3.5-18.6-4.7-24.4-4.6-23.8-7.4-43-.9-6.1-1.8-12.1-2.1-13.5-.2-1.4-.7-5-1-8-.3-3-.8-6.2-1-7-.2-.8-.7-4.9-1-9-.4-4.1-.9-8.2-1-9.1-.2-.9-.6-5.4-.9-10.1-.4-4.7-.8-9.4-1-10.5-.3-1.1-.7-6.9-1.1-12.9-.4-6-.8-12.5-1-14.4-1.2-12.6-1.8-49.4-1.9-116-.2-64.9-.4-76.9-1.6-78.8-1.5-2.4-6.7-5.6-35.3-22.1-9.2-5.3-18.2-10.5-20-11.5-1.8-1-5-2.9-7.2-4.1-2.2-1.3-22.4-13-45-26-22.5-13.1-43-24.9-45.5-26.3-2.5-1.4-13-7.4-23.3-13.4s-20-11.3-21.5-11.7c-1.5-.4-4.2-.4-6 0zm1795.2.9c-2.1.9-6.4 3.2-9.4 5-3 1.8-7.3 4.3-9.5 5.5-2.2 1.3-16.6 9.6-32 18.5-15.4 8.9-30 17.4-32.5 18.8-2.5 1.4-7.6 4.4-11.5 6.7-3.8 2.2-7.7 4.4-8.5 4.8-.8.4-2.9 1.5-4.5 2.6-2.4 1.4-38.4 22.3-52 30.1-1.6.9-7.2 4.1-12.3 7.1-5 3-10.4 6.1-12 6.9-6.6 3.7-10.3 6.3-11.5 8.3-.9 1.7-1.2 19.1-1.3 74.7-.1 80.3-1.1 116.4-3.9 145-.2 1.9-.7 6.9-1 11-.4 4.1-.8 8.6-1 10-.2 1.4-.7 5.6-1.1 9.5-.3 3.8-.8 7.8-1 8.9-.2 1-.6 4.4-.9 7.5-.4 3.1-.8 6.3-1 7.1-.2.8-.7 4-1 7-.5 4.7-2.5 17.4-4 26-.3 1.4-1 5.4-1.6 9-4 25.1-12.7 63-23.4 102.5-18.1 67-54.6 157.1-88.1 217.5-2 3.6-5.4 9.9-7.7 14-2.2 4.1-5.8 10.3-7.9 13.8-2.1 3.4-3.8 6.4-3.8 6.6 0 .8-18.6 30.6-27.5 44.1-14.8 22.5-47.2 67.7-50.4 70.5-.4.3-5.1 6.1-10.5 13-8.3 10.4-19.6 24-21.6 26-.3.3-3 3.4-6 7-3 3.5-6.2 7.2-7 8-.8.9-6 6.6-11.5 12.6-9.7 10.6-43.6 44.7-56.6 57-8.8 8.3-37.4 33.3-48.5 42.4-13.1 10.8-14.3 11.7-20.4 16.3-3 2.3-5.7 4.4-6 4.8-3.6 4.1-71.7 51.9-73.9 51.9-.5 0-1.6.9-2.6 2s-2.2 2-2.7 2-2.8 1.3-5.1 2.9c-2.3 1.5-10.5 6.5-18.2 11.1-7.7 4.6-15.7 9.3-17.7 10.6-2.1 1.3-3.9 2.4-4.1 2.4-.3 0-5.6 3-11.8 6.7-14.7 8.5-29.7 17.2-32.9 18.9-19.1 10.5-53.7 31.5-55.4 33.7l-2.1 2.8-.1 112.7c0 65.4.4 113.9.9 115.5 1.3 3.9 6.6 7.7 10.8 7.7 1.9 0 5-.8 6.9-1.8 3.9-2.1 3.7-1.9 31.5-18 11-6.3 22.5-13 25.5-14.7 3-1.8 11.4-6.6 18.5-10.7 20.6-11.9 44-25.4 71-41 13.8-7.9 31.1-18 38.5-22.3 7.4-4.3 15.1-8.7 17-9.8 4.5-2.5 27.5-15.9 32-18.6 1.9-1.1 4.2-2.4 5-2.8.8-.4 5.1-2.8 9.5-5.4 4.4-2.6 9.6-5.6 11.5-6.7 1.9-1 7.6-4.3 12.5-7.2 5-2.9 10.8-6.2 13-7.5 2.2-1.2 12.3-7.1 22.5-13s20.5-11.9 23-13.3c2.5-1.3 8.3-4.7 13-7.5 4.7-2.7 10.1-5.9 12-7 5.9-3.3 55.1-31.7 62-35.7 19.8-11.6 48.3-28 48.7-28 .3 0 1.7-.8 3.1-1.9 1.5-1 5-3.1 7.7-4.6 5.9-3.3 15.6-8.8 20.5-11.7 27.3-15.9 41.2-23.8 42-23.8.5 0 1-.5 1-1 0-.6.4-1 .8-1 .5 0 11.9-6.4 25.3-14.1 47.3-27.4 63.8-36.9 68.6-39.5 2.6-1.5 6.4-3.7 8.3-4.9 1.9-1.2 5.5-3.3 8-4.7 6.8-3.8 95.1-54.9 98.5-56.9 1.7-1.1 3.7-2.2 4.5-2.6 1.3-.6 19.1-10.9 23-13.3.8-.5 3.3-1.9 5.5-3.1 8.6-4.6 18-11.6 24.1-17.9 13.6-14 20.2-25.5 25.7-45l2.2-7.5.2-467.2c.3-451.5.3-467.3-1.5-470.5-3.1-5.6-9.6-7.6-15.8-4.8z"/></svg>