<?xml version="1.0" standalone="no"?>
<!DOCTYPE svg PUBLIC "-//W3C//DTD SVG 20010904//EN"
 "http://www.w3.org/TR/2001/REC-SVG-20010904/DTD/svg10.dtd">
<svg version="1.0" xmlns="http://www.w3.org/2000/svg"
 width="1024.000000pt" height="1024.000000pt" viewBox="0 0 1024.000000 1024.000000"
 preserveAspectRatio="xMidYMid meet">
<metadata>
Created by potrace 1.11, written by Peter Selinger 2001-2013
</metadata>
<g transform="translate(0.000000,1024.000000) scale(0.100000,-0.100000)"
fill="#000000" stroke="none">
<path d="M5000 10104 c-49 -13 -97 -36 -210 -101 -19 -11 -123 -71 -230 -133
-107 -62 -283 -163 -390 -225 -107 -62 -209 -121 -227 -131 -17 -11 -76 -44
-130 -75 -54 -31 -168 -97 -253 -147 -85 -49 -254 -146 -375 -216 -121 -69
-227 -130 -235 -135 -8 -5 -100 -59 -205 -119 -104 -60 -262 -151 -350 -202
-139 -81 -255 -148 -385 -222 -69 -40 -195 -113 -211 -123 -9 -5 -36 -21 -60
-34 -24 -13 -69 -38 -99 -56 -53 -32 -102 -60 -448 -260 -157 -91 -180 -114
-155 -154 9 -14 110 -78 248 -156 22 -12 144 -82 270 -155 127 -73 246 -142
265 -153 19 -10 64 -36 100 -58 36 -21 76 -40 90 -44 20 -4 66 18 214 105 103
60 190 110 191 110 2 0 32 17 66 38 278 168 663 343 1004 456 148 50 565 159
647 171 44 6 103 16 118 20 20 6 209 32 285 40 33 3 71 8 85 11 143 25 844 25
1000 0 14 -3 54 -7 90 -11 36 -3 74 -8 85 -10 11 -2 38 -6 61 -9 57 -7 287
-46 293 -51 3 -1 24 -6 46 -9 159 -25 674 -179 819 -246 25 -11 49 -20 54 -20
4 0 32 -11 60 -25 29 -14 54 -25 57 -25 15 0 320 -149 435 -212 30 -17 141
-80 245 -141 105 -60 206 -119 225 -130 97 -56 132 -69 154 -59 11 5 210 119
441 252 231 134 437 252 459 264 86 47 86 98 -2 147 -31 18 -179 103 -328 190
-150 86 -291 168 -315 182 -67 37 -489 282 -529 306 -19 11 -42 24 -50 28 -8
4 -51 28 -95 54 -78 45 -627 363 -693 401 -18 10 -93 53 -165 95 -73 42 -148
85 -167 95 -19 11 -39 24 -45 28 -5 4 -35 21 -65 37 -30 17 -197 112 -370 213
-173 100 -333 192 -355 204 -22 13 -96 56 -165 96 -69 40 -143 83 -165 95 -22
12 -96 55 -165 96 -172 101 -224 121 -329 125 -54 1 -107 -3 -141 -12z"/>
<path d="M4987 7464 c-1 -1 -38 -5 -82 -8 -94 -8 -121 -12 -240 -32 -110 -18
-347 -88 -442 -130 -17 -8 -34 -14 -38 -14 -9 0 -212 -101 -273 -137 -314
-181 -619 -472 -826 -791 -186 -286 -331 -695 -361 -1017 -4 -38 -9 -83 -11
-100 -5 -39 -5 -319 1 -370 13 -124 17 -156 27 -215 129 -787 669 -1479 1408
-1804 80 -36 240 -95 274 -102 10 -2 33 -8 50 -13 35 -12 199 -48 254 -57 123
-20 267 -30 412 -28 193 1 272 9 455 45 590 114 1143 472 1488 964 31 44 60
85 65 90 4 6 11 17 15 25 4 8 21 38 37 65 17 28 49 85 71 128 124 242 220 562
244 815 4 37 9 78 11 92 5 31 6 334 0 375 -2 17 -7 57 -10 90 -15 137 -51 305
-96 450 -24 75 -118 313 -131 331 -5 6 -27 46 -50 90 -37 71 -176 288 -203
317 -6 7 -29 35 -51 62 -65 82 -284 296 -375 367 -377 290 -786 454 -1255 504
-64 6 -362 13 -368 8z"/>
<path d="M692 7274 l-22 -15 0 -2274 c0 -1630 3 -2289 11 -2327 18 -83 67
-172 128 -231 50 -49 230 -158 740 -449 19 -11 208 -120 420 -242 212 -123
402 -233 421 -243 19 -11 78 -45 130 -75 186 -108 935 -541 965 -558 43 -24
337 -194 560 -323 105 -61 215 -124 245 -140 30 -16 62 -35 70 -41 8 -6 24
-16 35 -22 11 -6 100 -57 197 -112 98 -56 186 -102 196 -102 10 0 27 9 37 21
18 19 19 48 20 562 0 298 -3 553 -7 567 -8 23 -51 52 -218 145 -20 12 -68 39
-106 61 -38 23 -130 76 -204 119 -153 90 -397 251 -514 340 -168 128 -189 145
-258 206 -40 35 -90 80 -113 99 -64 55 -324 318 -395 399 -36 41 -70 79 -75
85 -9 9 -168 208 -193 241 -417 552 -758 1280 -907 1935 -16 70 -66 325 -70
356 -3 21 -7 48 -9 59 -2 12 -7 48 -11 80 -4 33 -9 67 -10 76 -2 9 -6 52 -10
95 -4 43 -8 95 -11 114 -8 71 -16 376 -18 706 l-1 338 -40 27 c-22 14 -60 37
-85 51 -25 14 -155 89 -288 167 -134 77 -246 141 -249 141 -2 0 -24 14 -48 30
-24 17 -45 30 -48 30 -2 0 -51 27 -108 60 -57 33 -111 60 -119 60 -9 0 -26 -7
-38 -16z"/>
<path d="M9355 7209 c-77 -45 -158 -91 -180 -104 -61 -34 -485 -280 -525 -304
-19 -11 -52 -30 -72 -41 -21 -11 -41 -28 -46 -38 -5 -9 -10 -195 -10 -412 -1
-376 -3 -442 -18 -640 -8 -110 -11 -135 -19 -195 -3 -27 -8 -68 -11 -90 -3
-22 -13 -89 -24 -150 -32 -187 -36 -207 -44 -233 -3 -9 -8 -33 -12 -52 -8 -46
-9 -51 -17 -75 -3 -11 -8 -31 -11 -45 -7 -44 -74 -274 -112 -386 -202 -602
-516 -1168 -919 -1659 -186 -226 -423 -465 -670 -676 -22 -19 -44 -37 -50 -41
-5 -4 -26 -20 -45 -36 -206 -168 -497 -359 -876 -574 -203 -114 -284 -165
-291 -183 -5 -11 -8 -266 -8 -567 1 -519 2 -548 20 -567 10 -12 27 -21 38 -21
11 0 83 37 161 81 77 45 197 114 266 154 598 346 711 411 750 433 25 14 57 33
72 43 14 11 28 19 31 19 3 0 86 47 184 103 98 57 255 148 348 202 94 54 224
130 290 168 66 38 140 81 165 95 25 14 189 108 365 210 176 101 358 207 405
233 47 27 92 54 100 59 8 6 22 13 30 17 8 4 32 17 53 30 21 13 55 33 75 45
152 85 585 337 620 360 83 57 147 144 181 248 21 63 21 63 21 2351 l0 2288
-22 15 c-12 9 -29 16 -38 16 -8 0 -78 -37 -155 -81z"/>
</g>
</svg>
